# xmcd
#
# Track frame offsets:
#	150
#	16610
#	29267
#	43799
#	57167
#	72968
#	88805
#	102445
#	116132
#	130433
#	148391
#	161160
#	177022
#	195899
#	211264
#
# Disc length: 3031 seconds
#
# Revision: 1
# Processed by: cddbd v1.5.2PL0 Copyright (c) Steve Scherf et al.
# Submitted via: audiograbber 1.83.01
#
DISCID=d50bd50f
DTITLE=Tenille Arts - Rebel Child (Deluxe Edition)
DYEAR=2017
DGENRE=Country
TTITLE0=Rebel Child
TTITLE1=Outta My Mind
TTITLE2=Run out of You
TTITLE3=There's This Boy
TTITLE4=Moment of Weakness
TTITLE5=Alabama
TTITLE6=Raindrops, Dirt Roads
TTITLE7=Good About It
TTITLE8=Steal a Heart
TTITLE9=Red Flag White
TTITLE10=Good Guys
TTITLE11=Cold Feet
TTITLE12=Black Velvet
TTITLE13=Wildfire and Whiskey
TTITLE14=Moment of Weakness (Acoustic Edition)
EXTD=
EXTT0=
EXTT1=
EXTT2=
EXTT3=
EXTT4=
EXTT5=
EXTT6=
EXTT7=
EXTT8=
EXTT9=
EXTT10=
EXTT11=
EXTT12=
EXTT13=
EXTT14=
PLAYORDER=
